<svg width="26" height="48" viewBox="0 0 26 48" fill="none" xmlns="http://www.w3.org/2000/svg">
<path d="M8.55518 7.34549C8.55518 7.05907 8.83634 6.9445 8.83634 6.9445L12.9766 5L17.1562 6.9445C17.1562 6.9445 17.4442 7.00862 17.4442 7.34759V7.68446H8.55518V7.34549Z" fill="black"/>
<path d="M17.167 8.38594C17.167 8.07903 16.9016 7.83044 16.5747 7.83044H9.38901C9.06159 7.83044 8.83351 8.07903 8.83351 8.38594C8.83351 8.59458 8.94072 8.77432 9.11152 8.86944V9.21945H10.2225V8.94144H11.3335V9.21945H12.4445V8.94144H13.5555V9.21945H14.6665V8.94144H15.7775V9.21945H16.889V8.85525C17.0556 8.75645 17.167 8.58355 17.167 8.38594ZM18 14.2531C18 14.3636 17.9561 14.4696 17.8779 14.5478C17.7998 14.6259 17.6938 14.6698 17.5832 14.6698H8.41675C8.30622 14.6698 8.20022 14.6259 8.12206 14.5478C8.04391 14.4696 8 14.3636 8 14.2531C8 14.1426 8.04391 14.0366 8.12206 13.9584C8.20022 13.8802 8.30622 13.8363 8.41675 13.8363H17.5838C17.8134 13.8363 18 14.0229 18 14.2531V14.2531Z" fill="black"/>
<path d="M17.4442 8.05169C17.4442 8.12543 17.415 8.19614 17.3628 8.24828C17.3107 8.30041 17.24 8.3297 17.1662 8.3297H8.83272C8.76195 8.32535 8.69549 8.29416 8.64691 8.24251C8.59834 8.19085 8.57129 8.12261 8.57129 8.05169C8.57129 7.98078 8.59834 7.91254 8.64691 7.86088C8.69549 7.80922 8.76195 7.77804 8.83272 7.77368L17.1662 7.77526C17.2027 7.77512 17.2387 7.78216 17.2724 7.79599C17.3061 7.80981 17.3367 7.83014 17.3626 7.85582C17.3884 7.8815 17.4089 7.91201 17.4229 7.94562C17.4369 7.97923 17.4442 8.01528 17.4442 8.05169V8.05169ZM9.94424 8.37438H16.0558V8.99767H9.94424V8.37438Z" fill="black"/>
<path d="M10.2214 12.5869C10.2214 12.8938 10.0553 13.1424 9.85088 13.1424H9.48037C9.27593 13.1424 9.10986 12.8938 9.10986 12.5869V8.3752C9.10986 8.06828 9.27593 7.8197 9.48037 7.8197H9.85088C10.0553 7.8197 10.2214 8.06828 10.2214 8.3752V12.5869ZM16.8884 12.5869C16.8884 12.8938 16.7229 13.1424 16.5179 13.1424H16.1474C15.943 13.1424 15.7769 12.8938 15.7769 12.5869V8.3752C15.7769 8.06828 15.9424 7.8197 16.1474 7.8197H16.5179C16.7223 7.8197 16.8884 8.06828 16.8884 8.3752V12.5869ZM12.4439 12.5869C12.4439 12.8938 12.2778 13.1424 12.0734 13.1424H11.7029C11.4984 13.1424 11.3324 12.8938 11.3324 12.5869V8.3752C11.3324 8.06828 11.4984 7.8197 11.7029 7.8197H12.0734C12.2778 7.8197 12.4439 8.06828 12.4439 8.3752V12.5869ZM14.6659 12.5869C14.6659 12.8938 14.4998 13.1424 14.2954 13.1424H13.9254C13.721 13.1424 13.5549 12.8938 13.5549 12.5869V8.3752C13.5549 8.06828 13.721 7.8197 13.9254 7.8197H14.2954C14.4998 7.8197 14.6659 8.06828 14.6659 8.3752V12.5869Z" fill="black"/>
<path d="M17.1665 12.8641C17.1665 13.171 16.9179 13.4196 16.611 13.4196H9.38851C9.24118 13.4196 9.09989 13.3611 8.99571 13.2569C8.89153 13.1527 8.83301 13.0114 8.83301 12.8641C8.83301 12.7168 8.89153 12.5755 8.99571 12.4713C9.09989 12.3671 9.24118 12.3086 9.38851 12.3086H16.611C16.9174 12.3086 17.1665 12.5572 17.1665 12.8641V12.8641Z" fill="black"/>
<path d="M17.7224 13.4196C17.7224 13.7265 17.4738 13.9751 17.1669 13.9751H8.83284C8.68551 13.9751 8.54422 13.9166 8.44005 13.8124C8.33587 13.7083 8.27734 13.567 8.27734 13.4196C8.27734 13.2723 8.33587 13.131 8.44005 13.0268C8.54422 12.9227 8.68551 12.8641 8.83284 12.8641H17.1664C17.4733 12.8641 17.7224 13.1127 17.7224 13.4196V13.4196Z" fill="#333333"/>
<path d="M18 13.8362C18 13.9467 17.9561 14.0527 17.8779 14.1309C17.7998 14.209 17.6938 14.2529 17.5832 14.2529H8.41675C8.36203 14.2529 8.30783 14.2422 8.25727 14.2212C8.20671 14.2003 8.16076 14.1696 8.12206 14.1309C8.08337 14.0922 8.05267 14.0462 8.03172 13.9957C8.01078 13.9451 8 13.8909 8 13.8362C8 13.7815 8.01078 13.7273 8.03172 13.6767C8.05267 13.6261 8.08337 13.5802 8.12206 13.5415C8.16076 13.5028 8.20671 13.4721 8.25727 13.4512C8.30783 13.4302 8.36203 13.4194 8.41675 13.4194H17.5838C17.8134 13.4194 18 13.606 18 13.8362V13.8362Z" fill="black"/>
<path d="M8.55518 7.66434C8.55518 7.37792 8.83634 7.26335 8.83634 7.26335L12.9766 5.31885L17.1562 7.26335C17.1562 7.26335 17.4442 7.32747 17.4442 7.66644V7.81937H8.55518V7.66434Z" fill="black"/>
<path d="M12.9994 6.02478C12.9994 6.02478 10.1326 7.37595 9.84668 7.49787C9.56026 7.61927 9.65591 7.81898 9.8472 7.81898H16.1379C16.4333 7.81898 16.3634 7.59352 16.129 7.47159C15.8946 7.35019 12.9994 6.02478 12.9994 6.02478Z" fill="#333333"/>
<path d="M25.0537 44H0.837402L12.7148 18.8608H13.3301L25.0537 44ZM21.1743 41.522L13.0225 24.1929L4.80225 41.522H21.1743Z" fill="black"/>
<path d="M21.5391 29.7617C21.5391 31.5052 21.2852 32.8848 20.7773 33.9004C20.278 34.9076 19.4401 35.7285 18.2637 36.3633C17.0872 36.998 15.6569 37.3577 13.9727 37.4424V42H12.0938V37.4424C10.528 37.3577 9.19922 37.0573 8.10742 36.541C7.01562 36.0247 6.14388 35.2715 5.49219 34.2812C4.84896 33.291 4.52734 31.738 4.52734 29.6221V23.3252H6.44434V29.0127C6.44434 30.5531 6.56283 31.7295 6.7998 32.542C7.04525 33.346 7.62077 34.0358 8.52637 34.6113C9.43197 35.1784 10.6211 35.5212 12.0938 35.6396V23.3252H13.9727V35.6396C15.513 35.5212 16.7233 35.1657 17.6035 34.5732C18.4922 33.9808 19.0508 33.3037 19.2793 32.542C19.5078 31.7718 19.6221 30.5954 19.6221 29.0127V23.3252H21.5391V29.7617Z" fill="black"/>
<rect x="19.6299" y="15" width="1.9" height="11" fill="black"/>
<rect x="4.54004" y="15" width="1.9" height="13" fill="black"/>
<circle cx="13" cy="10" r="9" stroke="black" stroke-width="2"/>
</svg>
